<svg viewBox="0 0 23 24" fill="none" xmlns="http://www.w3.org/2000/svg">
<path d="M23 22.6016C23 23.0978 22.5978 23.5 22.1016 23.5H13.2969C12.8006 23.5 12.3984 23.0978 12.3984 22.6016V5.8457H11.5C11.0038 5.8457 10.6016 5.44351 10.6016 4.94727V4.04883H5.21094V4.94727C5.21094 5.44351 4.80875 5.8457 4.3125 5.8457H3.41406V22.6016C3.41406 23.0978 3.01187 23.5 2.51562 23.5H0.898438C0.402191 23.5 0 23.0978 0 22.6016C0 22.1053 0.402191 21.7031 0.898438 21.7031H1.61719V4.94727C1.61719 4.45102 2.01938 4.04883 2.51562 4.04883H3.41406V3.15039C3.41406 2.65414 3.81625 2.25195 4.3125 2.25195H7.00781V1.39844C7.00781 0.902191 7.41 0.5 7.90625 0.5C8.4025 0.5 8.80469 0.902191 8.80469 1.39844V2.25195H11.5C11.9962 2.25195 12.3984 2.65414 12.3984 3.15039V4.04883H13.2969C13.3013 4.04883 13.3055 4.04935 13.3099 4.04953C13.4838 4.04304 13.6615 4.08708 13.8201 4.18675L19.5208 7.77208C20.6867 8.50539 21.3828 9.76549 21.3828 11.143V14.5156C21.3828 15.0119 20.9806 15.4141 20.4844 15.4141C19.9881 15.4141 19.5859 15.0119 19.5859 14.5156V11.143C19.5859 10.387 19.2039 9.69547 18.5641 9.29311L14.1953 6.5455V21.7031H15.9473V20.2656C15.9473 19.7694 16.3495 19.3672 16.8457 19.3672C17.3419 19.3672 17.7441 19.7694 17.7441 20.2656V21.7031H19.5859V18.9629C19.5859 18.4666 19.9881 18.0645 20.4844 18.0645C20.9806 18.0645 21.3828 18.4666 21.3828 18.9629V21.7031H22.1016C22.5978 21.7031 23 22.1053 23 22.6016ZM6.06445 11.2812C5.56821 11.2812 5.16602 11.6834 5.16602 12.1797V13.0781C5.16602 13.5744 5.56821 13.9766 6.06445 13.9766C6.5607 13.9766 6.96289 13.5744 6.96289 13.0781V12.1797C6.96289 11.6834 6.5607 11.2812 6.06445 11.2812ZM9.6582 11.2812C9.16196 11.2812 8.75977 11.6834 8.75977 12.1797V13.0781C8.75977 13.5744 9.16196 13.9766 9.6582 13.9766C10.1544 13.9766 10.5566 13.5744 10.5566 13.0781V12.1797C10.5566 11.6834 10.1544 11.2812 9.6582 11.2812ZM6.06445 15.3242C5.56821 15.3242 5.16602 15.7264 5.16602 16.2227V17.1211C5.16602 17.6173 5.56821 18.0195 6.06445 18.0195C6.5607 18.0195 6.96289 17.6173 6.96289 17.1211V16.2227C6.96289 15.7264 6.5607 15.3242 6.06445 15.3242ZM9.6582 15.3242C9.16196 15.3242 8.75977 15.7264 8.75977 16.2227V17.1211C8.75977 17.6173 9.16196 18.0195 9.6582 18.0195C10.1544 18.0195 10.5566 17.6173 10.5566 17.1211V16.2227C10.5566 15.7264 10.1544 15.3242 9.6582 15.3242ZM9.6582 19.3672C9.16196 19.3672 8.75977 19.7694 8.75977 20.2656V21.1641C8.75977 21.6603 9.16196 22.0625 9.6582 22.0625C10.1544 22.0625 10.5566 21.6603 10.5566 21.1641V20.2656C10.5566 19.7694 10.1544 19.3672 9.6582 19.3672ZM17.7441 12.1797C17.7441 11.6834 17.3419 11.2812 16.8457 11.2812C16.3495 11.2812 15.9473 11.6834 15.9473 12.1797V13.0781C15.9473 13.5744 16.3495 13.9766 16.8457 13.9766C17.3419 13.9766 17.7441 13.5744 17.7441 13.0781V12.1797ZM16.8457 15.3242C16.3495 15.3242 15.9473 15.7264 15.9473 16.2227V17.1211C15.9473 17.6173 16.3495 18.0195 16.8457 18.0195C17.3419 18.0195 17.7441 17.6173 17.7441 17.1211V16.2227C17.7441 15.7264 17.3419 15.3242 16.8457 15.3242ZM6.06445 19.3672C5.56821 19.3672 5.16602 19.7694 5.16602 20.2656V21.1641C5.16602 21.6603 5.56821 22.0625 6.06445 22.0625C6.5607 22.0625 6.96289 21.6603 6.96289 21.1641V20.2656C6.96289 19.7694 6.5607 19.3672 6.06445 19.3672ZM6.06445 7.23828C5.56821 7.23828 5.16602 7.64047 5.16602 8.13672V9.03516C5.16602 9.5314 5.56821 9.93359 6.06445 9.93359C6.5607 9.93359 6.96289 9.5314 6.96289 9.03516V8.13672C6.96289 7.64047 6.5607 7.23828 6.06445 7.23828ZM9.6582 7.23828C9.16196 7.23828 8.75977 7.64047 8.75977 8.13672V9.03516C8.75977 9.5314 9.16196 9.93359 9.6582 9.93359C10.1544 9.93359 10.5566 9.5314 10.5566 9.03516V8.13672C10.5566 7.64047 10.1544 7.23828 9.6582 7.23828Z" fill="#C4AB79"/>
</svg>
