<svg viewBox="0 0 14 14" fill="none" xmlns="http://www.w3.org/2000/svg">
<path d="M8.66671 1.19113C10.6927 1.77136 12.283 3.38287 12.8334 5.42132M2.05686 0.958336H4.41075L6.13695 3.54762L4.77228 4.91229C4.55047 5.13409 4.47282 5.4614 4.60695 5.74496C4.84628 6.25095 5.32311 7.08712 6.13695 7.8631C6.93183 8.62101 7.7382 9.10336 8.23513 9.36007C8.52812 9.51143 8.87662 9.4389 9.10981 9.20571L10.4524 7.8631L13.0417 9.58929V11.9432C13.0417 12.5499 12.5499 13.0417 11.9432 13.0417C5.87646 13.0417 0.958374 8.12359 0.958374 2.05682C0.958374 1.45014 1.45018 0.958336 2.05686 0.958336Z" stroke="#9EA3A5" stroke-width="1.5" stroke-linecap="round" stroke-linejoin="round"/>
</svg>
