<?xml version="1.0" encoding="UTF-8"?>
<svg id="Layer_2" data-name="Layer 2" xmlns="http://www.w3.org/2000/svg" viewBox="0 0 40 40">
  <defs>
    <style>
      .cls-1, .cls-2 {
        fill: #fff;
      }

      .cls-3 {
        fill: #303030;
      }

      .cls-2 {
        font-family: Poppins-Bold, Poppins;
        font-size: 6.56px;
        font-weight: 700;
      }

      .cls-4, .cls-5 {
        opacity: .3;
      }

      .cls-6, .cls-5 {
        fill: #a140ff;
      }

      .cls-5 {
        isolation: isolate;
      }
    </style>
  </defs>
  <g id="Layer_1-2" data-name="Layer 1">
    <rect class="cls-3" width="40" height="40" rx="4" ry="4"/>
    <g class="cls-4">
      <path class="cls-5" d="M25.25,10.57c-.72,0-1.42-.29-1.93-.81-.51-.52-.8-1.21-.8-1.94v-3.82h-12.2c-.94,0-1.85.38-2.52,1.05-.67.67-1.04,1.58-1.04,2.54v21.63c0,.95.38,1.86,1.04,2.53.67.67,1.57,1.05,2.52,1.05h14.64c.47,0,.93-.09,1.36-.27.43-.18.83-.44,1.16-.78.33-.33.59-.73.77-1.16.18-.44.27-.9.27-1.37V10.57h-3.28Z"/>
    </g>
    <path class="cls-6" d="M28.53,10.57h-3.28c-.72,0-1.42-.29-1.93-.81-.51-.52-.8-1.21-.8-1.94v-3.82l6.01,6.57Z"/>
    <path class="cls-6" d="M31.11,26.75H14.56c-1.17,0-2.13.96-2.13,2.14v4.97c0,1.18.95,2.14,2.13,2.14h16.55c1.17,0,2.13-.96,2.13-2.14v-4.97c0-1.18-.95-2.14-2.13-2.14Z"/>
    <path class="cls-1" d="M17.74,32.45v.97h-1v-.97h1Z"/>
    <path class="cls-6" d="M22.57,21.59v-6.36s0-.06,0-.09c0,0,0-.02,0-.03,0-.02-.01-.04-.02-.06,0,0,0-.02-.01-.03,0-.02-.02-.04-.03-.06v-.02s-.05-.05-.07-.07h0s-.04-.04-.06-.06h-.02s-.05-.04-.05-.04h-.03s-.04-.03-.06-.03h-.02s-.06,0-.09,0h-8.92c-.12.01-.24.07-.32.16-.08.09-.13.21-.13.33v6.38c0,.08.02.16.07.23.04.07.11.14.18.18.07.04.16.07.24.07h8.87c.13,0,.25-.05.35-.14.09-.09.14-.22.15-.35ZM13.25,15.93v-.97h.78v.97h-.78ZM14.56,15.93v-.97h.78v.97h-.78ZM15.88,15.93v-.97h.78v.97h-.78ZM17.2,15.93v-.97h.78v.97h-.78ZM18.51,15.93v-.97h.78v.97h-.78ZM19.83,15.93v-.97h.78v.97h-.78ZM21.14,15.93v-.97h.78v.97h-.78ZM13.07,20.61v-4.42h9.16v4.42h-9.16ZM13.25,21.84v-.97h.78v.97h-.78ZM14.56,21.84v-.97h.78v.97h-.78ZM15.88,21.84v-.97h.78v.97h-.78ZM17.19,21.84v-.97h.78v.97h-.78ZM18.51,21.84v-.97h.78v.97h-.78ZM19.83,21.84v-.97h.78v.97h-.78ZM21.14,21.84v-.97h.78v.97h-.78Z"/>
    <path class="cls-6" d="M18.71,18.07l-1.27-.74c-.07-.04-.14-.06-.22-.06-.08,0-.15.02-.22.06-.07.04-.12.09-.16.16-.04.07-.06.14-.06.22v1.47c0,.08.02.15.06.22.04.07.09.12.16.16.07.04.14.06.22.06.08,0,.15-.02.22-.06l1.27-.74c.07-.04.12-.09.16-.16.04-.07.06-.14.06-.22s-.02-.15-.06-.22c-.04-.07-.09-.12-.16-.16Z"/>
    <text class="cls-2" transform="translate(18.43 33.42)"><tspan x="0" y="0">VID</tspan></text>
  </g>
</svg>