<svg width="36" height="27" viewBox="0 0 36 27" fill="none" xmlns="http://www.w3.org/2000/svg">
<path fill-rule="evenodd" clip-rule="evenodd" d="M3.71014 0.810741C4.48722 0.708071 5.44759 0.708159 6.51787 0.708258L18.2325 0.708264C20.9976 0.708252 23.1769 0.708243 24.9313 0.855963C26.7231 1.00682 28.2172 1.3203 29.5731 2.0312C31.4317 3.00558 32.9812 4.46586 34.0503 6.25179C34.8307 7.55559 35.2121 9.01192 35.4403 10.7664C35.6636 12.4836 35.7544 14.6241 35.8694 17.338C35.8989 18.0319 35.9312 18.794 35.9066 19.3113C35.8802 19.8649 35.7921 20.4556 35.491 21.0307C35.1274 21.7255 34.5661 22.3 33.8768 22.6849L33.8387 22.7064C33.5551 22.8656 32.9617 23.1988 32.6941 23.003C32.5509 22.8982 32.5599 22.6685 32.5781 22.2091C32.7161 18.7121 29.8371 15.7083 26.333 15.7083C22.7539 15.7083 19.8495 18.8405 20.0984 22.4006C20.1262 22.7977 20.1401 22.9962 20.0412 23.1022C19.9424 23.2082 19.7591 23.2082 19.3924 23.2082H16.6069C16.2403 23.2082 16.057 23.2082 15.9581 23.1022C15.8593 22.9962 15.8732 22.7977 15.9009 22.4006C16.1499 18.8405 13.2454 15.7083 9.66634 15.7083C6.18818 15.7083 3.31833 18.6688 3.41901 22.1427C3.43248 22.6075 3.43922 22.8399 3.29701 22.9434C3.1548 23.0468 2.9714 22.9815 2.6046 22.8509C1.1896 22.3472 0.386796 21.0968 0.187474 19.6399C0.0828196 18.8749 0.0829117 17.93 0.0830142 16.879L0.0830208 10.2973L0.0830078 10.2916L0.0830208 10.2858L0.0830142 7.03753C0.0829117 5.98652 0.0828196 5.04158 0.187474 4.27662C0.301831 3.44075 0.567429 2.58392 1.28092 1.88277C1.9935 1.1825 2.86271 0.922706 3.71014 0.810741ZM32.2086 11.176C32.2245 11.2987 32.2438 11.4704 32.2624 11.6455C32.2986 11.985 32.3167 12.1547 32.2172 12.2652C32.1176 12.3757 31.946 12.3754 31.6028 12.3748C30.5321 12.3729 28.9077 12.3653 28.6174 12.3353C28.2739 12.2998 28.1388 12.2414 28.0536 12.1887C27.5879 11.9009 26.9763 11.3384 26.471 10.7316C26.3491 10.5853 26.3334 10.4863 26.3334 10.2918L26.3334 5.10516C26.3334 4.71923 26.3334 4.52627 26.4698 4.42639C26.6062 4.32651 26.7792 4.38131 27.1251 4.49093C27.4646 4.59854 27.7658 4.72428 28.044 4.87014C29.374 5.56746 30.4814 6.61166 31.2447 7.88688C31.7084 8.66152 32.0079 9.63323 32.2086 11.176ZM23 4.6122C23 4.3068 23 4.1541 22.905 4.05694C22.81 3.95978 22.6585 3.9564 22.3555 3.94966C21.1792 3.92347 19.8035 3.92301 18.1565 3.92301C18.07 3.92301 17.9998 3.99314 17.9998 4.07964L18 8.37541C18 8.68967 18 8.8468 18.0976 8.94443C18.1953 9.04205 18.3524 9.04205 18.6666 9.04205H22.3334C22.6476 9.04205 22.8048 9.04205 22.9024 8.94442C23 8.84679 23 8.68966 23 8.37539L23 4.6122ZM14 9.04205C14.3143 9.04205 14.4714 9.04205 14.569 8.94442C14.6667 8.84678 14.6667 8.68964 14.6666 8.37536L14.6665 4.58966C14.6665 4.2754 14.6665 4.11827 14.5689 4.02064C14.4712 3.92301 14.3141 3.92301 13.9999 3.92301L10.3332 3.92301C10.0189 3.92301 9.86176 3.92301 9.76413 4.02065C9.6665 4.11828 9.66651 4.27542 9.66652 4.5897L9.66664 8.37541C9.66665 8.68967 9.66666 8.8468 9.76429 8.94443C9.86192 9.04205 10.0191 9.04205 10.3333 9.04205L14 9.04205ZM5.66664 9.04205C5.98092 9.04205 6.13806 9.04205 6.23569 8.94442C6.33333 8.84678 6.33332 8.68964 6.33331 8.37536L6.33318 4.59033C6.33317 4.27503 6.33317 4.11737 6.2346 4.01959C6.13602 3.9218 5.97925 3.92305 5.66571 3.92555C4.99614 3.9309 4.51846 3.94729 4.14183 3.99706C3.67128 4.05923 3.58967 4.149 3.57906 4.16067C3.5681 4.1701 3.478 4.2476 3.41513 4.70709C3.34345 5.23106 3.33996 5.95526 3.33996 7.1373V8.37539C3.33996 8.68966 3.33996 8.84679 3.43759 8.94442C3.53522 9.04205 3.69236 9.04205 4.00663 9.04205H5.66664Z" fill="#5FA6A6"/>
<path d="M30.4997 21.9583C30.4997 24.2594 28.6342 26.1249 26.333 26.1249C24.0318 26.1249 22.1663 24.2594 22.1663 21.9583C22.1663 19.6571 24.0318 17.7916 26.333 17.7916C28.6342 17.7916 30.4997 19.6571 30.4997 21.9583Z" fill="#5FA6A6"/>
<path d="M9.66634 26.1249C11.9675 26.1249 13.833 24.2594 13.833 21.9583C13.833 19.6571 11.9675 17.7916 9.66634 17.7916C7.36515 17.7916 5.49967 19.6571 5.49967 21.9583C5.49967 24.2594 7.36515 26.1249 9.66634 26.1249Z" fill="#5FA6A6"/>
</svg>
