<svg id="Layer_2" data-name="Layer 2" xmlns="http://www.w3.org/2000/svg" viewBox="0 0 380.76 489.26">
  <g id="Layer_1-2" data-name="Layer 1">
    <g id="_27_Bus" data-name=" 27 Bus">
      <path fill="#5fa6a6" class="cls-1" d="M193.26.02C88.54-1.54,1.67,82.63.03,187.32c-.93,53.43,20.71,104.77,59.6,141.42,41.82,39.53,76.31,86.15,100.49,138.37l1.85,4c11.21,24.2,45.61,24.2,56.82,0l1.85-4c24.12-51.91,58.02-98.68,99.85-137.75,38.51-35.96,60.34-86.31,60.27-139C380.76,86.19,297.07,1.56,193.26.02h0ZM190.38,330.75c-77.41,0-140.38-63-140.38-140.38S112.97,50,190.38,50s140.38,63,140.38,140.37-62.98,140.38-140.38,140.38Z"/>
      <path fill="#5fa6a6" class="cls-1" d="M148.26,300.37h-4.44c-4.88,0-8.83-3.95-8.83-8.83v-18.91h22.1v19c-.05,4.84-3.99,8.74-8.83,8.74Z"/>
      <path fill="#5fa6a6" class="cls-1" d="M236.94,300.37h-4.44c-4.88,0-8.83-3.95-8.83-8.83v-18.91h22.1v19c-.05,4.84-3.99,8.74-8.83,8.74h0Z"/>
      <path fill="#5fa6a6" class="cls-1" d="M237.98,80.37h-95.2c-16.37,0-29.63,13.27-29.63,29.64v136c0,14.7,10.68,26.62,23.85,26.62h106.76c13.17,0,23.85-11.92,23.85-26.62V110.01c0-16.37-13.26-29.63-29.63-29.64ZM163.88,101.2c0-2.94,3.47-5.32,7.75-5.32h37.5c4.28,0,7.75,2.38,7.75,5.32v8.87c0,2.94-3.47,5.32-7.75,5.32h-37.5c-4.28,0-7.75-2.38-7.75-5.32v-8.87ZM154.24,257.92h-15.48c-5.07.17-9.31-3.8-9.48-8.87-.17-5.07,3.8-9.31,8.87-9.48.2,0,.4,0,.61,0h15.48c5.07-.17,9.31,3.8,9.48,8.87.17,5.07-3.8,9.31-8.87,9.48-.2,0-.4,0-.61,0ZM157.88,223.92c0-3.31,2.69-6,6-6h53.5c3.31,0,6,2.69,6,6s-2.69,6-6,6h-53.5c-3.31,0-6-2.69-6-6,0,0,0,0,0-.01h0ZM242,257.92h-15.48c-5.07.17-9.31-3.8-9.48-8.87-.17-5.07,3.8-9.31,8.87-9.48.2,0,.4,0,.61,0h15.48c5.07-.17,9.31,3.8,9.48,8.87.17,5.07-3.8,9.31-8.87,9.48-.2,0-.4,0-.61,0ZM254.38,186.01c-.12,6.82-5.74,12.27-12.56,12.16h-102.85c-6.83.12-12.47-5.32-12.59-12.15,0,0,0,0,0-.01v-37.44c.12-6.82,5.74-12.27,12.56-12.16h102.85c6.83-.12,12.47,5.32,12.59,12.15,0,0,0,0,0,.01v37.44Z"/>
    </g>
  </g>
</svg>