<svg width="36" height="34" viewBox="0 0 36 34" fill="none" xmlns="http://www.w3.org/2000/svg">
<path d="M16.1894 4.60341C17.5042 4.07418 17.762 4 17.9997 4C18.2374 4 18.4951 4.07418 19.8099 4.60341L29.5827 8.53708C30.6078 8.94972 31.2535 9.2121 31.722 9.4635C32.1544 9.69551 32.2954 9.84735 32.3751 9.96583C32.4555 10.0853 32.5444 10.2764 32.5983 10.7706C32.6565 11.304 32.6588 12.007 32.6588 13.1173L32.6588 31.625C32.6588 32.5225 33.388 33.25 34.2876 33.25C35.1871 33.25 35.9163 32.5225 35.9163 31.625L35.9163 13.0366C35.9164 12.0307 35.9165 11.149 35.8368 10.4189C35.7507 9.63004 35.5595 8.86748 35.0798 8.15452C34.5995 7.44054 33.9645 6.97655 33.2651 6.60124C32.6194 6.25473 31.8043 5.9267 30.8773 5.55363L20.8253 1.50733C19.8343 1.10668 18.952 0.75 17.9997 0.75C17.0473 0.75 16.1651 1.10668 15.1741 1.50733L5.12221 5.55358C4.19517 5.92666 3.38003 6.25472 2.73426 6.60124C2.03484 6.97655 1.39988 7.44054 0.919515 8.15452C0.439835 8.86748 0.248684 9.63004 0.162597 10.4189C0.0829105 11.149 0.0829572 12.0307 0.0830106 13.0365L0.0830166 31.625C0.0830166 32.5225 0.81225 33.25 1.7118 33.25C2.61136 33.25 3.34059 32.5225 3.34059 31.625L3.34059 13.1173C3.34059 12.007 3.34283 11.304 3.40103 10.7706C3.45497 10.2764 3.54386 10.0853 3.62426 9.96583C3.70398 9.84735 3.84495 9.69551 4.27732 9.4635C4.74583 9.2121 5.39154 8.94972 6.4167 8.53708L16.1894 4.60341Z" fill="#5FA6A6"/>
<path fill-rule="evenodd" clip-rule="evenodd" d="M9.66634 31.5833V29.9167C8.05551 29.9167 6.74968 28.6108 6.74968 27L6.74968 22C6.74968 20.5901 7.75013 19.4138 9.07987 19.1423L9.30989 18.2222C9.59372 17.0866 9.84159 16.0949 10.1419 15.3065C10.4662 14.4555 10.9119 13.6683 11.6923 13.059C12.4727 12.4497 13.3444 12.2082 14.2487 12.1C15.0864 11.9999 16.1086 11.9999 17.2791 12L18.721 12C19.8915 11.9999 20.9138 11.9999 21.7515 12.1C22.6557 12.2082 23.5275 12.4497 24.3079 13.059C25.0883 13.6683 25.534 14.4555 25.8582 15.3065C26.1585 16.0949 26.4064 17.0866 26.6902 18.2221L26.9203 19.1425C28.2497 19.4143 29.2497 20.5903 29.2497 22L29.2497 27C29.2497 28.6108 27.9438 29.9167 26.333 29.9167V31.5833C26.333 32.5038 25.5868 33.25 24.6663 33.25C23.7459 33.25 22.9997 32.5038 22.9997 31.5833V29.9167L12.9997 29.9167V31.5833C12.9997 32.5038 12.2535 33.25 11.333 33.25C10.4125 33.25 9.66634 32.5038 9.66634 31.5833ZM13.2569 16.4932C13.0381 17.0674 12.8382 17.8528 12.5305 19.0833L23.4696 19.0833C23.1619 17.8528 22.962 17.0674 22.7433 16.4932C22.5383 15.9551 22.3803 15.783 22.2565 15.6863C22.1327 15.5897 21.9274 15.4782 21.3557 15.4098C20.7395 15.3361 19.9187 15.3333 18.6282 15.3333L17.3719 15.3333C16.0814 15.3333 15.2607 15.3361 14.6445 15.4098C14.0728 15.4782 13.8675 15.5897 13.7436 15.6863C13.6198 15.783 13.4619 15.9551 13.2569 16.4932ZM12.1663 22.8333C13.0868 22.8333 13.833 23.5746 13.833 24.489V24.511C13.833 25.4254 13.0868 26.1667 12.1663 26.1667C11.2459 26.1667 10.4997 25.4254 10.4997 24.511V24.489C10.4997 23.5746 11.2459 22.8333 12.1663 22.8333ZM25.4997 24.489C25.4997 23.5746 24.7535 22.8333 23.833 22.8333C22.9125 22.8333 22.1663 23.5746 22.1663 24.489V24.511C22.1663 25.4254 22.9125 26.1667 23.833 26.1667C24.7535 26.1667 25.4997 25.4254 25.4997 24.511V24.489Z" fill="#5FA6A6"/>
</svg>
