<svg id="Layer_1" height="512" viewBox="0 0 36 36" width="512" xmlns="http://www.w3.org/2000/svg" data-name="Layer 1"><path d="m33.5 8.4v12.25l-3.5.53a24.31 24.31 0 0 1 -7.41 0l-1.59-.24a2.25 2.25 0 0 1 -1.87-2.3c.76-.06 1.53-.14 2.29-.26l3.49-.53a1.66 1.66 0 0 0 1.42-1.65v-7a24.24 24.24 0 0 0 3.67-.26z" fill-rule="evenodd" fill="#35685f90"/><path d="m23.87 4.85c-.82-.71-1.76-.5-2.72-.37a24.31 24.31 0 0 1 -7.41 0l-2.66-.41v-1.24a.83.83 0 1 0 -1.66 0v22.29c-3.89.24-6.92 2.13-6.92 4.42 0 2.46 3.5 4.46 7.75 4.46s7.75-2 7.75-4.45c0-2-2.2-3.62-5.26-4.21v4.21a.83.83 0 1 1 -1.66 0v-13.23l2.66.41a24.39 24.39 0 0 0 3.71.29 25.27 25.27 0 0 0 3.7-.29l3.5-.53v-9.65a2.24 2.24 0 0 0 -.78-1.7z" fill="#35685f"/></svg>