<svg width="30" height="34" viewBox="0 0 30 34" fill="none" xmlns="http://www.w3.org/2000/svg">
<path d="M2.08366 0.333252C3.00413 0.333252 3.75033 1.07944 3.75033 1.99992V31.9999C3.75033 32.9204 3.00413 33.6666 2.08366 33.6666C1.16318 33.6666 0.416992 32.9204 0.416992 31.9999V1.99992C0.416992 1.07944 1.16318 0.333252 2.08366 0.333252Z" fill="#5FA6A6"/>
<path d="M27.917 0.333252C28.8375 0.333252 29.5837 1.07944 29.5837 1.99992V31.9999C29.5837 32.9204 28.8375 33.6666 27.917 33.6666C26.9965 33.6666 26.2503 32.9204 26.2503 31.9999V1.99992C26.2503 1.07944 26.9965 0.333252 27.917 0.333252Z" fill="#5FA6A6"/>
<path d="M15.0003 20.3333C13.7856 20.3333 12.9536 21.077 12.3138 21.9308C11.6976 22.7532 11.0645 23.943 10.3079 25.3647L9.13588 27.567C8.55625 28.656 8.07039 29.5689 7.79447 30.2787C7.65264 30.6436 7.53005 31.0422 7.50499 31.4406C7.47827 31.8656 7.56056 32.3568 7.90451 32.7842C8.14248 33.0799 8.44518 33.3107 8.7798 33.4696C9.22935 33.683 9.69169 33.694 10.088 33.6375C10.4772 33.582 10.8774 33.4507 11.2707 33.2928C12.0369 32.9851 13.0185 32.4737 14.2187 31.8484C14.512 31.6956 14.7359 31.5799 14.8615 31.5262C14.9418 31.4887 15.016 31.4889 15.0696 31.5003L15.0732 31.5013L15.0991 31.5099C15.126 31.5189 15.1531 31.5315 15.2071 31.5567C15.3384 31.618 15.5357 31.7201 15.782 31.8484C16.9822 32.4737 17.9637 32.9851 18.73 33.2928C19.1233 33.4507 19.5234 33.582 19.9127 33.6375C20.309 33.694 20.7713 33.683 21.2209 33.4696C21.5555 33.3107 21.8582 33.0799 22.0961 32.7842C22.4401 32.3568 22.5224 31.8656 22.4957 31.4406C22.4706 31.0421 22.348 30.6436 22.2062 30.2787C21.9303 29.5689 21.4444 28.656 20.8648 27.567L19.6927 25.3647C18.9362 23.943 18.3031 22.7532 17.6868 21.9308C17.047 21.077 16.215 20.3333 15.0003 20.3333Z" fill="#5FA6A6"/>
<path d="M15.0003 0.333252C15.9208 0.333252 16.667 1.07944 16.667 1.99992V5.33325C16.667 6.25373 15.9208 6.99992 15.0003 6.99992C14.0799 6.99992 13.3337 6.25373 13.3337 5.33325V1.99992C13.3337 1.07944 14.0799 0.333252 15.0003 0.333252Z" fill="#5FA6A6"/>
<path d="M16.667 11.9999C16.667 11.0794 15.9208 10.3333 15.0003 10.3333C14.0799 10.3333 13.3337 11.0794 13.3337 11.9999V15.3333C13.3337 16.2537 14.0799 16.9999 15.0003 16.9999C15.9208 16.9999 16.667 16.2537 16.667 15.3333V11.9999Z" fill="#5FA6A6"/>
</svg>
