<svg width="36" height="36" viewBox="0 0 36 36" fill="none" xmlns="http://www.w3.org/2000/svg">
<path d="M13.4163 4.66659C13.4163 2.13528 15.4684 0.083252 17.9997 0.083252C20.531 0.083252 22.583 2.13528 22.583 4.66659C22.583 6.48881 21.5196 8.06266 19.9795 8.80142C19.7938 8.8905 19.6663 9.07303 19.6663 9.27898V14.6666C19.6663 15.5871 18.9201 16.3333 17.9997 16.3333C17.0792 16.3333 16.333 15.5871 16.333 14.6666V9.27898C16.333 9.07303 16.2055 8.8905 16.0198 8.80142C14.4797 8.06266 13.4163 6.48881 13.4163 4.66659Z" fill="#5FA6A6"/>
<path fill-rule="evenodd" clip-rule="evenodd" d="M13.833 12.7499C13.833 12.2785 13.833 12.0428 13.6866 11.8964C13.5401 11.7499 13.3044 11.7499 12.833 11.7499H11.2351C8.96139 11.7499 7.11819 11.7498 5.66649 11.9613C4.1471 12.1826 2.87694 12.6575 1.87897 13.7386C0.894144 14.8055 0.4737 16.1394 0.275584 17.7358C0.0829641 19.2878 0.0829834 21.2668 0.0830084 23.7472V23.916C0.0829834 26.3964 0.0829641 28.3754 0.275584 29.9275C0.4737 31.5239 0.894144 32.8578 1.87897 33.9247C2.87694 35.0058 4.1471 35.4807 5.66649 35.702C7.11821 35.9134 8.96134 35.9134 11.2351 35.9133H24.7642C27.038 35.9134 28.8811 35.9134 30.3329 35.702C31.8523 35.4807 33.1224 35.0058 34.1204 33.9247C35.1052 32.8578 35.5257 31.5239 35.7238 29.9275C35.9164 28.3754 35.9164 26.3965 35.9163 23.9162V23.7472C35.9164 21.2668 35.9164 19.2878 35.7238 17.7358C35.5257 16.1394 35.1052 14.8055 34.1204 13.7386C33.1224 12.6574 31.8523 12.1826 30.3329 11.9613C28.8812 11.7498 27.0381 11.7499 24.7643 11.7499H23.1663C22.6949 11.7499 22.4592 11.7499 22.3128 11.8964C22.1663 12.0428 22.1663 12.2785 22.1663 12.7499V14.6633C22.1663 16.9645 20.3009 18.83 17.9997 18.83C15.6985 18.83 13.833 16.9645 13.833 14.6633V12.7499ZM6.56032 17.1604C7.02412 16.3653 8.04465 16.0968 8.83973 16.5606L20.9411 23.6197L27.0755 19.5301C27.8413 19.0195 28.8761 19.2265 29.3867 19.9924C29.8973 20.7582 29.6903 21.793 28.9244 22.3036L24.146 25.4892L28.8397 28.2272C29.6348 28.691 29.9034 29.7116 29.4396 30.5066C28.9758 31.3017 27.9552 31.5703 27.1602 31.1065L15.555 24.3368L8.9191 28.7238C8.15125 29.2315 7.11727 29.0205 6.60964 28.2527C6.10201 27.4848 6.31296 26.4508 7.0808 25.9432L12.3439 22.4637L7.16016 19.4398C6.36508 18.976 6.09652 17.9555 6.56032 17.1604Z" fill="#5FA6A6"/>
</svg>
