<svg width="38" height="34" viewBox="0 0 38 34" fill="none" xmlns="http://www.w3.org/2000/svg">
<path fill-rule="evenodd" clip-rule="evenodd" d="M19.1711 1.48136C16.9483 0.749594 14.5842 0.749746 10.4603 0.75001L2.33366 0.75002C1.6433 0.75002 1.08366 1.30966 1.08366 2.00002L1.08366 8.41667C1.08366 8.73094 1.08366 8.88807 1.18129 8.9857C1.27892 9.08333 1.43606 9.08333 1.75033 9.08333L5.53185 9.08333C5.94031 9.08331 6.20275 9.0833 6.45631 9.09956C8.62274 9.23847 10.6371 10.2609 12.028 11.9277C12.3096 12.2652 12.5732 12.6214 12.813 12.9809C13.4227 13.8948 13.5833 14.9725 13.5837 16.0491C13.5837 16.3759 13.5769 16.7018 13.4596 17.0118C13.2651 17.5257 12.8594 17.9314 12.3455 18.1259C12.0282 18.246 11.6869 18.25 11.3599 18.25L1.75033 18.25C1.43606 18.25 1.27892 18.25 1.18129 18.3476C1.08366 18.4453 1.08366 18.6024 1.08366 18.9167L1.08366 22C1.08366 22.6904 1.6433 23.25 2.33366 23.25L32.2756 23.25C32.3288 23.25 32.3701 23.25 32.407 23.2494C34.8809 23.2099 36.8768 21.2139 36.9164 18.74C36.917 18.7031 36.917 18.6622 36.917 18.609V18.5923C36.917 18.515 36.917 18.4676 36.9166 18.4219C36.8882 15.4447 35.4778 12.6499 33.0997 10.8585C33.0631 10.831 33.025 10.8028 32.9627 10.7568L26.6128 6.06761C23.2955 3.61763 21.3939 2.21313 19.1711 1.48136ZM20.7094 5.57822C20.3956 5.31215 19.9631 5.25817 19.598 5.43951C19.2329 5.62084 19.0003 6.00515 19.0003 6.42709L19.0003 8.61459C19.0003 13.3111 22.8713 17 27.5019 17H32.1188C32.5625 17 32.9581 16.7085 33.1065 16.2722C33.255 15.8359 33.1241 15.3493 32.7797 15.0574L20.7094 5.57822Z" fill="#5FA6A6"/>
<path d="M1.08366 15.0833C1.08366 15.3976 1.08366 15.5547 1.18129 15.6524C1.27892 15.75 1.43606 15.75 1.75033 15.75L10.7348 15.75C10.8999 15.75 10.9825 15.75 11.0323 15.6929C11.0821 15.6357 11.0716 15.5594 11.0506 15.4067C10.9495 14.6715 10.6054 14.1249 10.1085 13.5295C9.15686 12.3891 7.77863 11.6895 6.29633 11.5944C6.1326 11.5839 5.95466 11.5833 5.48839 11.5833L1.75033 11.5833C1.43606 11.5833 1.27892 11.5833 1.18129 11.681C1.08366 11.7786 1.08366 11.9357 1.08366 12.25L1.08366 15.0833Z" fill="#5FA6A6"/>
<path d="M0.666992 28.6667C0.666992 27.7462 1.41318 27 2.33366 27L35.667 27C36.5875 27 37.3337 27.7462 37.3337 28.6667C37.3337 29.5871 36.5875 30.3333 35.667 30.3333H30.667V32C30.667 32.9205 29.9208 33.6667 29.0003 33.6667C28.0798 33.6667 27.3337 32.9205 27.3337 32V30.3333L20.667 30.3333V32C20.667 32.9205 19.9208 33.6667 19.0003 33.6667C18.0798 33.6667 17.3337 32.9205 17.3337 32V30.3333H10.667V32C10.667 32.9205 9.9208 33.6667 9.00032 33.6667C8.07985 33.6667 7.33366 32.9205 7.33366 32L7.33366 30.3333H2.33366C1.41318 30.3333 0.666992 29.5871 0.666992 28.6667Z" fill="#5FA6A6"/>
</svg>
