<?xml version="1.0" encoding="UTF-8"?>
<svg fill="#b49164" id="Layer_2" data-name="Layer 2" xmlns="http://www.w3.org/2000/svg" viewBox="0 0 339.21 384">
  <g id="Layer_1-2" data-name="Layer 1">
    <path d="M166.6,384l-113.48-60.9c-13.7-7.79-6.2-28.24-7.88-41.33,1.74-3.6,8.05-3.76,9.94-.48,3.3,5.72-.82,28.25,2.1,31.27l106.31,57.19v-111l-41.96,13.91c-6.51,1.69-12.47-2.46-18.06-5.27-15.99-8.05-31.33-17.66-47.23-25.89v14.62c0,4.86-6.63,8.45-10.19,4.19-2.83-3.38.22-19.7-1.42-24.83l-39.34-21.41c-7.03-4.58-7.37-14.39.02-18.6,9.34-5.31,24.89-7.74,35.18-11.74l-31.81-36.81c-5.47-6.72-3.99-13.3,3.08-17.78,14.15-8.97,31.77-16.94,46.71-25.29,1.84-1.03,3.96-2.14,6.01-2.62l-6.89-10.73c-11.89-36.98,41.83-50.95,49.65-13.26,8-2.6,15.59-11.81,24.52-6.9l38.03,42.12,19.08-22.21c-11.32-17.36.18-38.27,21.43-35.45,10.8,1.43,16.41,11.6,18.46,21.29l33.71,18.04c5.04,4.94.67,11.8-6.02,9.77l-31.74-16.97c-5.41,10.03-16.11,11.86-26.7,10.15l-19.51,22.53,108.5,58.76,34.73-39.62c-14.42-7.48-29.22-14.73-42.76-23.62-3.61-4.9,1.33-10.26,6.79-8.29l44.99,24.77c2.74,3.96,4.16,8.24,1.35,12.62l-33.61,39.5c9.85,3.08,20.24,5.77,29.83,9.56,4.25,1.68,8.66,2.85,10.18,7.82,1.81,5.93-.57,9.92-5.25,13.26l-39.13,21.62-.09,74.91c-.07,3.77-2.12,7.04-4.5,9.75l-117.03,63.35h-6ZM79.4,66.18c-18.58,3.01-15.24,32.5,5.64,28.89,17.5-3.02,13.34-31.96-5.64-28.89ZM203.14,66.17c-7.37,1.53-9.76,11.77-4.71,17.11,8.36,8.84,23.51-1.98,16.5-12.75-2.76-4.24-6.9-5.38-11.79-4.36ZM17.35,138.76l34.86,39.75,108.37-58.89-34.72-39.29-19.53,10.52c-6.58,11.5-16.39,16.8-29.77,15.98l-59.21,31.92ZM112.6,211.12c-.46-3.95,0-9.34,0-13.5,0-13.95,14.04-33.18,25.27-40.73,4.49-3.02,19.75-11.73,22.92-4.45,3.32,7.62-8.97,9.43-14.19,12.43-19.21,11.04-28.61,35.86-19.2,56.42l42.52,22.45,42.03-22.51c9.07-20.7-.07-45.28-19.35-56.35-5.2-2.99-16.72-4.6-14.43-11.9,2.33-7.42,14.48-.99,18.93,1.4,13.21,7.12,29.5,27.77,29.5,43.25v13.5c0,.22-1.04,1.05-.75,1.87l2.78-.59c14.2-8.88,29.89-15.44,44.21-24.04.82-.49,3.74-1.65,3.25-2.74l-106.81-57.38-106.18,57.01c-.42,1.78.32,1.21.97,1.66.99.69,2.63,1.55,3.77,2.21,11.85,6.9,31.18,18.5,43.29,23.45.77.31,1.33.59,2.21.41.29-.85-.71-1.56-.75-1.87ZM155.35,249.74l-104.99-57.41-37.5,12.8,104.05,56.49,3.21-.19,35.22-11.68ZM183.85,249.74c13.11,2.86,25.26,9.77,38.43,11.87l104.05-56.49-37.5-12.8-104.99,57.41ZM282.85,242.25c-16.29,7.19-31.34,17.14-47.23,25.14-5.58,2.81-11.55,6.96-18.05,5.27l-41.96-13.91v111l107.25-58.88v-68.62Z"/>
    <path d="M243.1,0c16.65,4.46,25.55,20.9,16.9,36.78-9.25,16.97-35.33,15.89-43.29-1.76-7.02-15.56,2.18-31.25,18.14-35.02h8.25ZM236.15,11.43c-3.26.53-6.97,3.55-8.68,6.32-7.38,11.93,7.51,25.9,19,17.5,11.72-8.58,3.66-26.08-10.32-23.81Z"/>
    <path d="M271.38,57.91c5.74-1.69,7.49,2.6,11.09,5.82,9.88-13.36,21.24-1.98,7.89,7.89,13.36,9.88,1.98,21.24-7.89,7.89-9.88,13.36-21.24,1.98-7.89-7.89,0-.64-5.34-4.54-5.83-6.15-.76-2.52-.28-6.71,2.62-7.56Z"/>
    <path d="M107.09,20.47c3.65-.2,6.34,4.45,8.89,6.51,9.83-13.72,21.2-1.94,7.89,7.89,13.22,9.68,1.92,21.01-7.89,7.89-9.85,13.06-21.25,1.98-7.89-7.89-3.14-3.6-7.05-4.88-5.97-10.48.4-2.09,2.97-3.81,4.97-3.92Z"/>
    <path d="M163.4,210.93c5.98-1.01,21.68.48,21.99,8.46.12,2.96-1.96,5.89-5.04,6.16-3.98.35-6.62-5.28-15.31-3.23-3.43.81-10.07,6.51-12.39-1.05-1.58-5.16,6.59-9.65,10.74-10.35Z"/>
    <path d="M190.06,195.21c5.5-5.48,13.35,3.8,8.02,8.39s-13.18-3.24-8.02-8.39Z"/>
    <path d="M149.14,195.21c6.43,6.41-5.87,14.27-9.15,6.52-2.55-6.02,4.98-10.68,9.15-6.52Z"/>
    <path d="M212.9,318.16c5.73-1.16,9.3,4.9,5.47,9.23-1,1.13-14.01,8.16-15.58,8.47-5.39,1.06-9.22-5.02-5.46-9.26,1.03-1.16,13.93-8.11,15.57-8.44Z"/>
  </g>
</svg>