<?xml version="1.0" encoding="UTF-8"?>
<svg id="Layer_2" data-name="Layer 2" xmlns="http://www.w3.org/2000/svg" viewBox="0 0 65.68 65.67">
  <defs>
    <style>
      .cls-1 {
        fill: #303030;
      }
    </style>
  </defs>
  <g id="Layer_1-2" data-name="Layer 1">
    <path class="cls-1" d="M51.85,55.3h-3.46v3.46h3.46v-3.46Z"/>
    <path class="cls-1" d="M51.85,62.21h-3.46v3.46h3.46v-3.46Z"/>
    <path class="cls-1" d="M20.74,48.38v13.82h-3.46v-6.91H0v10.37h44.93v-10.37h-17.28v6.91h-3.46v-10.36h27.65v-3.46h-31.1ZM13.83,62.21H3.46v-3.45h10.37v3.45ZM31.11,58.75h10.37v3.45h-10.37v-3.45Z"/>
    <path class="cls-1" d="M58.76,13.82h-3.46v3.46h3.46v-3.46Z"/>
    <path class="cls-1" d="M65.68,13.82h-3.46v3.46h3.46v-3.46Z"/>
    <path class="cls-1" d="M55.31,20.73v17.29h6.91v3.45h-10.37V13.82h-3.45v31.11h13.82v3.45h-6.91v17.28h10.37V20.73h-10.37ZM62.22,62.21h-3.46v-10.37h3.46v10.37ZM62.22,34.56h-3.46v-10.37h3.46v10.37Z"/>
    <path class="cls-1" d="M17.29,6.91h-3.46v3.46h3.46v-3.46Z"/>
    <path class="cls-1" d="M17.29,0h-3.46v3.46h3.46V0Z"/>
    <path class="cls-1" d="M20.74,0v10.37h17.28V3.46h3.46v10.36H13.83v3.46h31.1V3.46h3.46v6.91h17.28V0H20.74ZM34.57,6.91h-10.37v-3.45h10.37v3.45ZM62.22,6.91h-10.37v-3.45h10.37v3.45Z"/>
    <path class="cls-1" d="M10.38,48.38h-3.46v3.46h3.46v-3.46Z"/>
    <path class="cls-1" d="M3.47,48.38H0v3.46h3.46v-3.46Z"/>
    <path class="cls-1" d="M3.46,20.73v-3.45h6.91V0H0v44.93h10.37v-17.28H3.46v-3.45h10.37v27.65h3.45v-31.12H3.46ZM3.46,3.46h3.46v10.36h-3.46V3.46ZM6.92,31.1v10.37h-3.46v-10.37h3.46Z"/>
    <path class="cls-1" d="M37.26,28.75c.34.72.54,1.52.62,2.27-.84-1.08-1.85-2.03-2.94-2.75.09.12.18.25.26.38.89,1.45.74,3.36.22,4.91-.32-1.46-.88-2.88-1.6-4.1-.17-.28-.34-.55-.53-.82l.26,6.53c0,.23-.27.65-.72.65s-.72-.41-.72-.65l.26-6.52c-.19.26-.37.53-.53.81-.72,1.22-1.28,2.64-1.6,4.1-.51-1.55-.67-3.47.22-4.91.08-.13.17-.26.26-.38-1.08.72-2.1,1.67-2.94,2.75.17-1.5.78-3.2,2.12-4.05.45-.28.93-.47,1.43-.57v-.05c-.29.02-.57.04-.86.09-1.25.19-2.45.55-3.6,1.09.84-1.28,2.17-2.24,3.42-2.41.2-.03.41-.04.62-.03-.75-.38-1.57-.7-2.41-.92,1.14-.31,2.38-.24,3.45.23.31-1.32.87-2.1.87-2.1,0,0,.56.78.87,2.1,1.07-.48,2.31-.54,3.45-.23-.84.22-1.66.54-2.41.92.21-.01.42,0,.62.03.63.08,1.28.36,1.87.79.6.42,1.14.98,1.56,1.62-1.15-.54-2.35-.9-3.6-1.09-.29-.04-.57-.07-.86-.09v.05c.5.1.98.29,1.43.57.68.43,1.17,1.06,1.51,1.78Z"/>
    <path class="cls-1" d="M44.93,33.26c-1.33-.15-2.73.13-3.96.88l-7.02,4.29,2.82,1.72.39-.64s-.02-.01-.03-.01c-.31-.19-.41-.61-.22-.92.19-.31.6-.41.92-.22.31.19.41.6.22.92l-.74,1.21.37.23.84.51c.28.18.62.19.9.07.01.15,0,.3-.07.44-.02.05-.04.1-.08.15-.28.47-.9.62-1.36.33l-1.21-.74-.39.64s.02.01.03.01c.31.19.41.6.22.92-.19.31-.61.42-.92.22s-.41-.61-.22-.92l.74-1.21-3.32-2.03-3.32,2.03.74,1.21c.19.31.09.73-.22.92-.31.19-.72.09-.92-.22-.19-.31-.09-.72.22-.92.01,0,.02-.01.03-.02l-.39-.64-1.21.74c-.47.29-1.08.14-1.37-.33-.03-.05-.05-.1-.08-.15-.05-.14-.08-.3-.07-.44.29.12.62.11.91-.07l.84-.51.38-.23-.74-1.21c-.19-.31-.09-.72.22-.92.31-.19.72-.09.92.22.19.31.09.73-.22.92-.01,0-.02,0-.03,0l.39.64,2.82-1.72-7.02-4.29c-1.23-.75-2.63-1.03-3.96-.88,1.32-.9,3.11-1.01,4.57-.11l7.53,4.6,7.53-4.6c1.43-.88,3.22-.78,4.54.12Z"/>
  </g>
</svg>