<svg width="69" height="21" viewBox="0 0 69 21" fill="none" xmlns="http://www.w3.org/2000/svg">
<path opacity="0.946" fill-rule="evenodd" clip-rule="evenodd" d="M0.336898 0.901184C3.03267 0.873034 5.72786 0.901184 8.42246 0.985467C8.84919 2.04692 9.10186 3.14259 9.18048 4.27248C6.08322 5.22134 3.13536 6.51373 0.336898 8.14948C0.35787 6.34128 0.32979 4.48707 0.252674 2.58683C0.19439 2.29724 0.110166 2.01624 0 1.74401C0.0582329 1.54241 0.142457 1.54241 0.252674 1.74401C0.335803 1.46857 0.363884 1.18758 0.336898 0.901184Z" fill="white"/>
<path opacity="0.902" fill-rule="evenodd" clip-rule="evenodd" d="M10.2754 0.90094C13.2519 0.87279 16.2277 0.90094 19.2032 0.985222C19.2249 1.6519 19.2249 2.35431 19.2032 3.09229C16.4683 3.01761 13.7731 3.29861 11.1176 3.93511C10.7529 2.95608 10.4721 1.94469 10.2754 0.90094Z" fill="white"/>
<path opacity="0.962" fill-rule="evenodd" clip-rule="evenodd" d="M49.0178 0.901032C50.0158 0.849114 50.9986 0.905246 51.9656 1.0696C52.1053 7.29049 52.0773 13.4992 51.8814 19.696C50.8849 19.8321 49.9021 19.8041 48.9335 19.6117C48.7944 13.3629 48.8224 7.12597 49.0178 0.901032Z" fill="white"/>
<path opacity="0.965" fill-rule="evenodd" clip-rule="evenodd" d="M11.2881 5.62078C13.8825 4.99591 16.5216 4.71491 19.2052 4.77795C19.2052 8.48638 19.2052 12.1948 19.2052 15.9032C16.5437 16.0243 13.9327 15.7433 11.3723 15.0604C11.7218 11.9233 11.6939 8.77682 11.2881 5.62078Z" fill="white"/>
<path opacity="0.931" fill-rule="evenodd" clip-rule="evenodd" d="M25.7729 5.11514C27.9199 4.84864 29.8289 5.38248 31.5001 6.71651C31.6337 6.8994 31.7461 7.09612 31.837 7.30648C31.2163 8.06823 30.5144 8.74249 29.7314 9.32927C28.6621 8.24 27.3987 7.93102 25.9413 8.40216C25.2397 9.13575 25.296 9.81001 26.1098 10.4249C27.7636 10.9155 29.3357 11.5897 30.8263 12.4477C32.5945 14.2153 32.7911 16.1538 31.4159 18.2632C29.7326 19.8985 27.7393 20.4321 25.436 19.8646C24.0693 19.5885 22.9183 18.9424 21.9828 17.9261C21.7636 17.6117 21.7073 17.2746 21.8143 16.9147C22.3276 16.3444 22.889 15.8387 23.4988 15.3976C24.3207 16.2182 25.3032 16.752 26.4467 16.999C27.3529 17.1584 28.167 16.9619 28.8892 16.409C29.2347 15.7597 29.1504 15.1697 28.6365 14.6391C27.0217 14.0557 25.4496 13.3814 23.9199 12.6163C22.176 11.1941 21.7548 9.42417 22.6565 7.30648C23.4274 6.17777 24.466 5.44738 25.7729 5.11514Z" fill="white"/>
<path opacity="0.933" fill-rule="evenodd" clip-rule="evenodd" d="M38.9113 5.11519C44.6406 5.00478 47.3358 7.81426 46.9969 13.5434C43.5718 13.6559 40.1466 13.7681 36.7215 13.8806C37.6197 16.3527 39.3603 17.3362 41.9434 16.8305C42.7656 16.6439 43.4955 16.2786 44.1333 15.7348C44.7857 16.36 45.3471 17.0624 45.8178 17.8419C44.9196 18.8548 43.7965 19.529 42.4488 19.8646C37.8456 20.5259 34.8416 18.6435 33.4367 14.2177C32.8212 9.65549 34.646 6.62132 38.9113 5.11519ZM39.922 7.9808C42.1006 7.99968 43.364 9.0672 43.7121 11.1835C41.41 10.9588 39.1079 10.9588 36.8057 11.1835C37.1295 9.42658 38.1683 8.35906 39.922 7.9808Z" fill="white"/>
<path opacity="0.937" fill-rule="evenodd" clip-rule="evenodd" d="M60.6425 5.11525C62.6305 5.11171 64.1184 5.95453 65.1064 7.64372C65.2599 6.90187 65.5125 6.19946 65.8644 5.53666C66.5943 5.42423 67.3244 5.42423 68.0543 5.53666C68.1385 5.62094 68.2227 5.70522 68.3069 5.78951C68.4457 10.4041 68.4178 15.0115 68.2227 19.6118C67.386 19.8077 66.5438 19.8359 65.696 19.6961C65.475 19.2004 65.2223 18.7228 64.938 18.2633C62.1845 20.6483 59.3488 20.7326 56.4313 18.5162C54.2627 16.3887 53.4485 13.8322 53.9888 10.8465C55.0045 7.49572 57.2225 5.5852 60.6425 5.11525ZM59.9687 8.48655C63.9921 8.44137 65.5924 10.4079 64.7695 14.3863C63.5267 16.7427 61.6458 17.4451 59.1265 16.4934C57.8045 15.5956 57.1307 14.3314 57.1051 12.7007C57.19 10.6693 58.1444 9.26464 59.9687 8.48655Z" fill="white"/>
<path opacity="0.01" fill-rule="evenodd" clip-rule="evenodd" d="M11.288 5.62195C11.1748 5.39587 11.1748 5.39587 11.288 5.62195V5.62195Z" fill="white"/>
<path opacity="0.934" fill-rule="evenodd" clip-rule="evenodd" d="M8.92745 6.12649C9.2561 6.08047 9.50877 6.19273 9.68548 6.46362C9.91221 8.53849 9.9683 10.6174 9.85392 12.7005C9.84196 13.4063 9.72961 14.0806 9.51703 14.7233C6.28365 13.7391 3.25156 12.3344 0.420774 10.5092C0.316807 10.3492 0.344871 10.2088 0.504999 10.0878C3.16995 8.4451 5.97744 7.12473 8.92745 6.12649Z" fill="white"/>
<path opacity="0.93" fill-rule="evenodd" clip-rule="evenodd" d="M0.167969 12.7005C0.178076 12.609 0.23422 12.5529 0.336418 12.532C3.24409 14.1755 6.27617 15.524 9.43267 16.5775C9.18202 17.5249 8.95739 18.4801 8.75887 19.4431C8.70534 19.6365 8.59305 19.7771 8.42198 19.8646C5.72738 19.9488 3.03219 19.977 0.336418 19.9488C0.391888 17.503 0.335727 15.0869 0.167969 12.7005Z" fill="white"/>
<path opacity="0.908" fill-rule="evenodd" clip-rule="evenodd" d="M11.1186 16.9146C13.7939 17.3897 16.4891 17.6706 19.2042 17.7574C19.2042 18.4878 19.2042 19.2183 19.2042 19.9487C16.3402 19.7582 13.4766 19.7301 10.6133 19.8644C10.6136 18.8761 10.7821 17.8929 11.1186 16.9146Z" fill="white"/>
</svg>
