<svg width="14" height="19" viewBox="0 0 14 19" fill="none" xmlns="http://www.w3.org/2000/svg">
<path d="M6.5625 0C2.93181 0 0 2.92533 0 6.548C0 7.81111 0.404387 9.0172 0.967013 10.0083L5.24385 17.394C5.51197 17.8764 6.05262 18.1176 6.5625 18.1176C7.07242 18.1176 7.58665 17.8764 7.88115 17.394L12.158 10.0127C12.725 9.0215 13.125 7.83733 13.125 6.5523C13.125 2.92971 10.1932 0 6.5625 0ZM6.5625 8.48213C5.24385 8.48213 4.16695 7.40761 4.16695 6.09187C4.16695 4.77613 5.24385 3.70161 6.5625 3.70161C7.88115 3.70161 8.95805 4.77613 8.95805 6.09187C8.95805 7.412 7.88115 8.48213 6.5625 8.48213Z" fill="#B49164"/>
</svg>
