<svg width="60" height="31" viewBox="0 0 60 31" fill="none" xmlns="http://www.w3.org/2000/svg">
<g clip-path="url(#clip0_5174_2)">
<path d="M3.68546 16.0364C3.6595 15.8109 3.63353 15.5661 3.60756 15.302C3.58163 15.0379 3.55566 14.7738 3.52969 14.5097C3.50373 14.252 3.48101 14.0105 3.46154 13.785C3.44856 13.566 3.44207 13.3889 3.44207 13.2536C3.44207 12.8864 3.494 12.5386 3.59785 12.21C3.70168 11.8815 3.85098 11.5885 4.04568 11.3308C4.24688 11.0731 4.48704 10.8734 4.76611 10.7317C5.04521 10.5836 5.35999 10.5095 5.71049 10.5095C5.84029 10.5095 6.01877 10.532 6.24594 10.5771C6.4796 10.6158 6.7522 10.677 7.06373 10.7607C7.3753 10.838 7.7128 10.9282 8.07626 11.0313C8.43973 11.1343 8.81616 11.2535 9.20559 11.3888L8.90378 12.7415C8.58574 12.6771 8.26124 12.6094 7.93021 12.5386C7.59921 12.4742 7.28443 12.4162 6.98586 12.3647C6.6938 12.3067 6.43742 12.2648 6.21675 12.239C5.99605 12.2069 5.83704 12.1907 5.7397 12.1907C5.6034 12.1907 5.47032 12.2229 5.34052 12.2874C5.21722 12.3518 5.11336 12.4613 5.02899 12.6159C4.94462 12.7769 4.90241 12.9927 4.90241 13.2633C4.90241 13.3856 4.91216 13.5531 4.93162 13.7657C4.95109 13.9847 4.97381 14.2263 4.99977 14.4904C5.02574 14.7609 5.05171 15.0283 5.07767 15.2924C5.11011 15.5629 5.13932 15.8109 5.16529 16.0364H3.68546ZM8.90378 12.7415L7.47263 12.1134C7.6414 11.8429 7.76795 11.553 7.85234 11.2438C7.94321 10.9346 7.98864 10.6254 7.98864 10.3163C7.98864 9.89754 7.92049 9.59158 7.78419 9.39832C7.65436 9.19863 7.46938 9.09881 7.22925 9.09881C7.07998 9.09881 6.92418 9.14067 6.76195 9.22441C6.59968 9.30814 6.43092 9.44018 6.25568 9.62055C6.08692 9.80091 5.89872 10.0393 5.69102 10.3356L4.37671 9.46595C4.53894 9.22763 4.71421 8.98927 4.90241 8.75095C5.09064 8.50618 5.29834 8.28395 5.5255 8.08426C5.75267 7.87813 6.0058 7.71386 6.2849 7.59146C6.56397 7.46263 6.87553 7.39822 7.2195 7.39822C7.58946 7.39822 7.91724 7.47554 8.20281 7.63013C8.48841 7.77827 8.72529 7.98441 8.91352 8.2485C9.10176 8.51263 9.24452 8.81859 9.34189 9.16644C9.43925 9.51427 9.48794 9.8879 9.48794 10.2873C9.48794 10.6866 9.43601 11.1054 9.33214 11.5434C9.23481 11.9814 9.09201 12.3808 8.90378 12.7415ZM12.1775 12.4806V10.7607H13.3166V12.4806H12.1775ZM10.7366 12.4806V4.11304H12.2359V12.4806H10.7366ZM13.3166 12.4806V10.7607C13.375 10.7607 13.4204 10.838 13.4529 10.9926C13.4918 11.1472 13.5113 11.3534 13.5113 11.611C13.5113 11.8751 13.4918 12.0877 13.4529 12.2487C13.4204 12.4033 13.375 12.4806 13.3166 12.4806ZM13.3153 12.4806V10.7607H15.4376V12.4806H13.3153ZM15.4376 12.4806V10.7607C15.4961 10.7607 15.5415 10.838 15.5739 10.9926C15.6129 11.1472 15.6324 11.3534 15.6324 11.611C15.6324 11.8751 15.6129 12.0877 15.5739 12.2487C15.5415 12.4033 15.4961 12.4806 15.4376 12.4806ZM13.3153 12.4806C13.2568 12.4806 13.2114 12.4033 13.179 12.2487C13.14 12.0877 13.1205 11.8751 13.1205 11.611C13.1205 11.3534 13.14 11.1472 13.179 10.9926C13.2114 10.838 13.2568 10.7607 13.3153 10.7607V12.4806ZM15.4355 12.4806V10.7607H17.5578V12.4806H15.4355ZM17.5578 12.4806V10.7607C17.6162 10.7607 17.6617 10.838 17.6941 10.9926C17.7331 11.1472 17.7525 11.3534 17.7525 11.611C17.7525 11.8751 17.7331 12.0877 17.6941 12.2487C17.6617 12.4033 17.6162 12.4806 17.5578 12.4806ZM15.4355 12.4806C15.377 12.4806 15.3316 12.4033 15.2992 12.2487C15.2602 12.0877 15.2407 11.8751 15.2407 11.611C15.2407 11.3534 15.2602 11.1472 15.2992 10.9926C15.3316 10.838 15.377 10.7607 15.4355 10.7607V12.4806ZM17.5556 12.4806V10.7607H19.678V12.4806H17.5556ZM19.678 12.4806V10.7607C19.7364 10.7607 19.7819 10.838 19.8143 10.9926C19.8533 11.1472 19.8727 11.3534 19.8727 11.611C19.8727 11.8751 19.8533 12.0877 19.8143 12.2487C19.7819 12.4033 19.7364 12.4806 19.678 12.4806ZM17.5556 12.4806C17.4972 12.4806 17.4518 12.4033 17.4193 12.2487C17.3804 12.0877 17.3609 11.8751 17.3609 11.611C17.3609 11.3534 17.3804 11.1472 17.4193 10.9926C17.4518 10.838 17.4972 10.7607 17.5556 10.7607V12.4806ZM19.6758 12.4806V10.7607H21.7981V12.4806H19.6758ZM21.7981 12.4806V10.7607C21.8566 10.7607 21.902 10.838 21.9344 10.9926C21.9734 11.1472 21.9929 11.3534 21.9929 11.611C21.9929 11.8751 21.9734 12.0877 21.9344 12.2487C21.902 12.4033 21.8566 12.4806 21.7981 12.4806ZM19.6758 12.4806C19.6174 12.4806 19.5719 12.4033 19.5395 12.2487C19.5006 12.0877 19.4811 11.8751 19.4811 11.611C19.4811 11.3534 19.5006 11.1472 19.5395 10.9926C19.5719 10.838 19.6174 10.7607 19.6758 10.7607V12.4806ZM21.796 12.4806V10.7607H23.9184V12.4806H21.796ZM23.9184 12.4806V10.7607C23.9768 10.7607 24.0222 10.838 24.0547 10.9926C24.0936 11.1472 24.1131 11.3534 24.1131 11.611C24.1131 11.8751 24.0936 12.0877 24.0547 12.2487C24.0222 12.4033 23.9768 12.4806 23.9184 12.4806ZM21.796 12.4806C21.7376 12.4806 21.6921 12.4033 21.6597 12.2487C21.6207 12.0877 21.6013 11.8751 21.6013 11.611C21.6013 11.3534 21.6207 11.1472 21.6597 10.9926C21.6921 10.838 21.7376 10.7607 21.796 10.7607V12.4806ZM23.9161 12.4806V10.7607H26.0385V12.4806H23.9161ZM26.0385 12.4806V10.7607C26.0969 10.7607 26.1424 10.838 26.1748 10.9926C26.2138 11.1472 26.2332 11.3534 26.2332 11.611C26.2332 11.8751 26.2138 12.0877 26.1748 12.2487C26.1424 12.4033 26.0969 12.4806 26.0385 12.4806ZM23.9161 12.4806C23.8577 12.4806 23.8123 12.4033 23.7798 12.2487C23.7409 12.0877 23.7214 11.8751 23.7214 11.611C23.7214 11.3534 23.7409 11.1472 23.7798 10.9926C23.8123 10.838 23.8577 10.7607 23.9161 10.7607V12.4806ZM26.0363 12.4806V10.7607C26.3089 10.7607 26.5393 10.7189 26.7276 10.6351C26.9223 10.5514 27.1007 10.4193 27.263 10.239C27.4253 10.0586 27.594 9.83636 27.7693 9.57223C27.9315 9.33391 28.1068 9.09558 28.295 8.85723C28.4832 8.61245 28.6909 8.39022 28.9181 8.19054C29.1452 7.98441 29.3984 7.82014 29.6775 7.69776C29.963 7.57536 30.2843 7.51418 30.6413 7.51418C31.0047 7.51418 31.326 7.59146 31.6051 7.74608C31.8842 7.89422 32.1179 8.10036 32.306 8.36445C32.4943 8.62855 32.637 8.93776 32.7344 9.29204C32.8319 9.6399 32.8805 10.0167 32.8805 10.4225C32.8805 10.7833 32.8351 11.173 32.7442 11.5917C32.6534 12.0039 32.5202 12.3872 32.3451 12.7415L30.9236 12.1231C31.0729 11.8654 31.1865 11.5917 31.2644 11.3018C31.3422 11.0119 31.3812 10.7189 31.3812 10.4225C31.3812 10.0038 31.313 9.69786 31.1768 9.50463C31.0469 9.30491 30.862 9.20508 30.6218 9.20508C30.4595 9.20508 30.2941 9.2534 30.1253 9.35C29.9565 9.44018 29.778 9.58513 29.5898 9.78482C29.4016 9.9845 29.2004 10.2454 28.9862 10.5675C28.6876 11.0119 28.3923 11.3759 28.1003 11.6593C27.8147 11.9363 27.5096 12.1424 27.1851 12.2777C26.8606 12.413 26.4777 12.4806 26.0363 12.4806ZM32.2672 11.0216L32.3451 12.7415C31.7025 12.7801 31.1443 12.7769 30.6705 12.7318C30.1967 12.6867 29.7813 12.603 29.4243 12.4806C29.0738 12.3582 28.759 12.2036 28.4799 12.0168C28.2073 11.83 27.951 11.6142 27.7108 11.3694L28.7039 10.3259C28.9246 10.5514 29.1939 10.7221 29.5119 10.838C29.83 10.9475 30.2129 11.0152 30.6607 11.0409C31.1086 11.0603 31.644 11.0538 32.2672 11.0216ZM26.0363 12.4806C25.9779 12.4806 25.9325 12.4033 25.9 12.2487C25.8611 12.0877 25.8416 11.8751 25.8416 11.611C25.8416 11.3534 25.8611 11.1472 25.9 10.9926C25.9325 10.838 25.9779 10.7607 26.0363 10.7607V12.4806ZM33.1194 13.5725C33.4503 13.566 33.7068 13.5306 33.8886 13.4662C34.0766 13.4018 34.2098 13.3019 34.2877 13.1666C34.3656 13.0378 34.4044 12.8735 34.4044 12.6739V7.52382H35.9037V12.6739C35.9037 13.1763 35.7999 13.6143 35.5923 13.9879C35.391 14.3615 35.1023 14.6514 34.7259 14.8575C34.3558 15.0701 33.9144 15.1893 33.4017 15.215L33.1194 13.5725ZM35.1541 6.403C34.9077 6.403 34.7032 6.32249 34.5407 6.16145C34.3786 6.00041 34.2975 5.7975 34.2975 5.55272C34.2975 5.3015 34.3786 5.09859 34.5407 4.94399C34.7032 4.78295 34.9077 4.70244 35.1541 4.70244C35.4074 4.70244 35.6119 4.78295 35.7674 4.94399C35.9299 5.09859 36.011 5.3015 36.011 5.55272C36.011 5.7975 35.9299 6.00041 35.7674 6.16145C35.6119 6.32249 35.4074 6.403 35.1541 6.403ZM2.70651 19.2507H3.63138C5.00088 20.3973 5.68562 21.5278 5.68562 22.6422C5.68562 23.0995 5.57851 23.5021 5.36434 23.85C5.15664 24.1978 4.86458 24.4716 4.48811 24.6713C4.11168 24.8645 3.67032 24.9611 3.16409 24.9611C2.66432 24.9611 2.22297 24.8645 1.84004 24.6713C1.4571 24.4716 1.15854 24.1978 0.944353 23.85C0.73666 23.5021 0.632812 23.1027 0.632812 22.6518C0.632812 21.5375 1.32404 20.4037 2.70651 19.2507ZM3.09594 20.729C2.73247 21.0575 2.46636 21.3603 2.29761 21.6373C2.12886 21.9143 2.04449 22.1752 2.04449 22.4199C2.04449 22.5874 2.08992 22.7324 2.18078 22.8547C2.27165 22.9771 2.39821 23.0738 2.56048 23.1446C2.72923 23.209 2.93043 23.2412 3.16409 23.2412C3.39773 23.2412 3.5957 23.209 3.75797 23.1446C3.9267 23.0738 4.0565 22.9739 4.14737 22.8451C4.23823 22.7163 4.28366 22.5681 4.28366 22.4006C4.28366 22.1687 4.1993 21.9143 4.03056 21.6373C3.8618 21.3603 3.60217 21.0575 3.2517 20.729H3.09594ZM3.97213 18.3134C3.77093 18.3134 3.60217 18.249 3.46588 18.1202C3.33607 17.9849 3.27117 17.8174 3.27117 17.6178C3.27117 17.4116 3.33607 17.2441 3.46588 17.1153C3.60217 16.9865 3.77093 16.9221 3.97213 16.9221C4.17333 16.9221 4.33885 16.9865 4.46865 17.1153C4.60495 17.2441 4.6731 17.4116 4.6731 17.6178C4.6731 17.8174 4.60495 17.9849 4.46865 18.1202C4.33885 18.249 4.17333 18.3134 3.97213 18.3134ZM2.36576 18.3134C2.16456 18.3134 1.99581 18.249 1.85951 18.1202C1.7297 17.9849 1.66479 17.8174 1.66479 17.6178C1.66479 17.4116 1.7297 17.2441 1.85951 17.1153C1.99581 16.9865 2.16456 16.9221 2.36576 16.9221C2.57346 16.9221 2.74221 16.9865 2.87202 17.1153C3.00183 17.2441 3.06673 17.4116 3.06673 17.6178C3.06673 17.8174 3.00183 17.9849 2.87202 18.1202C2.74221 18.249 2.57346 18.3134 2.36576 18.3134ZM11.0247 24.9611V23.2412H12.4948V24.9611H11.0247ZM12.4948 24.9611V23.2412C12.5532 23.2412 12.5986 23.3185 12.6311 23.4731C12.67 23.6277 12.6895 23.8339 12.6895 24.0915C12.6895 24.3556 12.67 24.5682 12.6311 24.7292C12.5986 24.8838 12.5532 24.9611 12.4948 24.9611ZM6.93567 27.7052V25.9853H8.66863C9.11646 25.9853 9.42802 25.9145 9.60326 25.7728C9.77849 25.6375 9.86611 25.4346 9.86611 25.164V20.2845H11.3557V25.164C11.3557 25.6858 11.2453 26.1367 11.0247 26.5168C10.804 26.9033 10.4925 27.1964 10.09 27.396C9.68762 27.6022 9.21383 27.7052 8.66863 27.7052H6.93567ZM9.28197 24.9611C8.72381 24.9611 8.23701 24.8452 7.82161 24.6133C7.40625 24.3814 7.08497 24.0722 6.8578 23.6857C6.63063 23.2928 6.51705 22.8612 6.51705 22.391C6.51705 22.0109 6.58845 21.663 6.73122 21.3474C6.87402 21.0254 7.07197 20.7484 7.3251 20.5165C7.58473 20.2781 7.8833 20.0913 8.2208 19.956C8.55829 19.8208 8.91851 19.7531 9.30144 19.7531C9.67791 19.7531 10.0446 19.8111 10.4016 19.927C10.7586 20.0365 11.0766 20.1557 11.3557 20.2845L10.7423 21.8112C10.1971 21.502 9.71684 21.3474 9.30144 21.3474C9.04184 21.3474 8.81468 21.399 8.61994 21.502C8.43171 21.5986 8.28244 21.7275 8.17211 21.8885C8.06825 22.0495 8.01635 22.2203 8.01635 22.4006C8.01635 22.5681 8.06503 22.7259 8.16236 22.8741C8.25973 23.0222 8.40253 23.1414 8.59073 23.2316C8.78546 23.3218 9.01587 23.3669 9.28197 23.3669H10.83V24.9611H9.28197ZM12.4976 24.9611V23.2412H14.62V24.9611H12.4976ZM14.62 24.9611V23.2412C14.6784 23.2412 14.7239 23.3185 14.7563 23.4731C14.7953 23.6277 14.8147 23.8339 14.8147 24.0915C14.8147 24.3556 14.7953 24.5682 14.7563 24.7292C14.7239 24.8838 14.6784 24.9611 14.62 24.9611ZM12.4976 24.9611C12.4392 24.9611 12.3938 24.8838 12.3613 24.7292C12.3224 24.5682 12.3029 24.3556 12.3029 24.0915C12.3029 23.8339 12.3224 23.6277 12.3613 23.4731C12.3938 23.3185 12.4392 23.2412 12.4976 23.2412V24.9611ZM14.6178 24.9611V23.2412H16.7402V24.9611H14.6178ZM16.7402 24.9611V23.2412C16.7986 23.2412 16.844 23.3185 16.8765 23.4731C16.9154 23.6277 16.9349 23.8339 16.9349 24.0915C16.9349 24.3556 16.9154 24.5682 16.8765 24.7292C16.844 24.8838 16.7986 24.9611 16.7402 24.9611ZM14.6178 24.9611C14.5594 24.9611 14.514 24.8838 14.4815 24.7292C14.4426 24.5682 14.4231 24.3556 14.4231 24.0915C14.4231 23.8339 14.4426 23.6277 14.4815 23.4731C14.514 23.3185 14.5594 23.2412 14.6178 23.2412V24.9611ZM16.738 24.9611V23.2412H18.8603V24.9611H16.738ZM18.8603 24.9611V23.2412C18.9188 23.2412 18.9642 23.3185 18.9966 23.4731C19.0356 23.6277 19.0551 23.8339 19.0551 24.0915C19.0551 24.3556 19.0356 24.5682 18.9966 24.7292C18.9642 24.8838 18.9188 24.9611 18.8603 24.9611ZM16.738 24.9611C16.6795 24.9611 16.6341 24.8838 16.6017 24.7292C16.5627 24.5682 16.5432 24.3556 16.5432 24.0915C16.5432 23.8339 16.5627 23.6277 16.6017 23.4731C16.6341 23.3185 16.6795 23.2412 16.738 23.2412V24.9611ZM18.8581 24.9611V23.2412H20.9805V24.9611H18.8581ZM20.9805 24.9611V23.2412C21.0389 23.2412 21.0844 23.3185 21.1168 23.4731C21.1558 23.6277 21.1752 23.8339 21.1752 24.0915C21.1752 24.3556 21.1558 24.5682 21.1168 24.7292C21.0844 24.8838 21.0389 24.9611 20.9805 24.9611ZM18.8581 24.9611C18.7997 24.9611 18.7543 24.8838 18.7218 24.7292C18.6829 24.5682 18.6634 24.3556 18.6634 24.0915C18.6634 23.8339 18.6829 23.6277 18.7218 23.4731C18.7543 23.3185 18.7997 23.2412 18.8581 23.2412V24.9611ZM20.9783 24.9611V23.2412H23.1007V24.9611H20.9783ZM23.1007 24.9611V23.2412C23.1591 23.2412 23.2046 23.3185 23.237 23.4731C23.276 23.6277 23.2954 23.8339 23.2954 24.0915C23.2954 24.3556 23.276 24.5682 23.237 24.7292C23.2046 24.8838 23.1591 24.9611 23.1007 24.9611ZM20.9783 24.9611C20.9199 24.9611 20.8745 24.8838 20.842 24.7292C20.8031 24.5682 20.7836 24.3556 20.7836 24.0915C20.7836 23.8339 20.8031 23.6277 20.842 23.4731C20.8745 23.3185 20.9199 23.2412 20.9783 23.2412V24.9611ZM23.0985 24.9611V23.2412C23.4554 23.2412 23.7897 23.2348 24.1013 23.2219C24.4193 23.209 24.7146 23.1929 24.9872 23.1736C25.0261 23.1672 25.0651 23.1865 25.104 23.2316C25.143 23.2702 25.1819 23.3089 25.2209 23.3475C25.2598 23.3862 25.2955 23.4055 25.328 23.4055C25.8732 23.3346 26.3145 23.238 26.652 23.1156C26.996 22.9932 27.2459 22.8515 27.4017 22.6905C27.5639 22.5294 27.645 22.3491 27.645 22.1494C27.645 21.9819 27.5996 21.8305 27.5087 21.6953C27.4244 21.56 27.3043 21.4537 27.1485 21.3764C26.9928 21.2991 26.811 21.2605 26.6033 21.2605C26.3956 21.2605 26.2107 21.3023 26.0484 21.3861C25.8861 21.4698 25.7596 21.5793 25.6687 21.7146C25.5843 21.8434 25.5421 21.9884 25.5421 22.1494C25.5421 22.3426 25.6233 22.523 25.7855 22.6905C25.9543 22.858 26.2139 23.0061 26.5644 23.135C26.9214 23.2574 27.3822 23.3507 27.9468 23.4152C27.9858 23.4216 28.0215 23.4055 28.0539 23.3669C28.0929 23.3218 28.1318 23.2767 28.1708 23.2316C28.2097 23.1865 28.2486 23.1672 28.2876 23.1736C28.5472 23.1929 28.8263 23.209 29.1249 23.2219C29.4234 23.2348 29.7447 23.2412 30.0887 23.2412V24.9611C29.206 24.9611 28.3947 24.9064 27.6548 24.7969C26.9214 24.6809 26.2853 24.507 25.7466 24.2751C25.2079 24.0368 24.7893 23.734 24.4907 23.3669C24.1986 22.9997 24.0526 22.5616 24.0526 22.0528C24.0526 21.6019 24.1662 21.2057 24.3933 20.8643C24.6205 20.5165 24.9256 20.2459 25.3085 20.0527C25.6979 19.853 26.1263 19.7531 26.5936 19.7531C27.0609 19.7531 27.486 19.8498 27.869 20.043C28.2584 20.2363 28.5667 20.5068 28.7938 20.8546C29.0275 21.2025 29.1443 21.6051 29.1443 22.0624C29.1443 22.5198 29.0275 22.9159 28.7938 23.2509C28.5602 23.5794 28.2422 23.8564 27.8397 24.0819C27.4373 24.3009 26.9765 24.4748 26.4573 24.6036C25.9381 24.7325 25.3896 24.8259 24.812 24.8838C24.2408 24.9354 23.6696 24.9611 23.0985 24.9611ZM30.0887 24.9611V23.2412C30.1471 23.2412 30.1926 23.3185 30.225 23.4731C30.264 23.6277 30.2834 23.8339 30.2834 24.0915C30.2834 24.3556 30.264 24.5682 30.225 24.7292C30.1926 24.8838 30.1471 24.9611 30.0887 24.9611ZM23.0985 24.9611C23.0401 24.9611 22.9946 24.8838 22.9622 24.7292C22.9232 24.5682 22.9038 24.3556 22.9038 24.0915C22.9038 23.8339 22.9232 23.6277 22.9622 23.4731C22.9946 23.3185 23.0401 23.2412 23.0985 23.2412V24.9611ZM27.4017 18.8159C27.2004 18.8159 27.0317 18.7515 26.8954 18.6226C26.7656 18.4874 26.7007 18.3199 26.7007 18.1202C26.7007 17.914 26.7656 17.7466 26.8954 17.6178C27.0317 17.4889 27.2004 17.4245 27.4017 17.4245C27.6029 17.4245 27.7683 17.4889 27.8982 17.6178C28.0345 17.7466 28.1026 17.914 28.1026 18.1202C28.1026 18.3199 28.0345 18.4874 27.8982 18.6226C27.7683 18.7515 27.6029 18.8159 27.4017 18.8159ZM25.7953 18.8159C25.5941 18.8159 25.4253 18.7515 25.289 18.6226C25.1592 18.4874 25.0943 18.3199 25.0943 18.1202C25.0943 17.914 25.1592 17.7466 25.289 17.6178C25.4253 17.4889 25.5941 17.4245 25.7953 17.4245C26.003 17.4245 26.1717 17.4889 26.3015 17.6178C26.4313 17.7466 26.4962 17.914 26.4962 18.1202C26.4962 18.3199 26.4313 18.4874 26.3015 18.6226C26.1717 18.7515 26.003 18.8159 25.7953 18.8159ZM30.0865 24.9611V23.2412H31.469V16.5935H32.9682V24.9611H30.0865ZM30.0865 24.9611C30.0281 24.9611 29.9826 24.8838 29.9502 24.7292C29.9113 24.5682 29.8918 24.3556 29.8918 24.0915C29.8918 23.8339 29.9113 23.6277 29.9502 23.4731C29.9826 23.3185 30.0281 23.2412 30.0865 23.2412V24.9611ZM34.2107 24.9611V16.5935H35.71V24.9611H34.2107Z" fill="white"/>
<path fill-rule="evenodd" clip-rule="evenodd" d="M46.8835 2.46421C45.1842 3.81951 43.548 5.16119 43.2476 5.4456C41.877 6.74494 41.3063 7.97138 41.3164 9.59694C41.3265 11.2832 41.9345 12.546 43.453 14.0333C44.4071 14.9678 44.4683 14.9785 45.1457 14.3296C45.4073 14.0787 45.6111 13.8215 45.6111 13.7416C45.6111 13.6573 45.2574 13.2432 44.7387 12.721C44.2588 12.2377 43.7688 11.6956 43.6492 11.5163C42.9488 10.4641 42.9015 9.12198 43.5234 7.93854C43.6559 7.6869 43.9755 7.27702 44.2664 6.98687C44.8233 6.43056 49.7086 2.61487 50.0099 2.50086C50.2598 2.40634 50.2837 2.42184 52.2528 3.94621C55.8569 6.73674 56.4724 7.30322 56.9252 8.24926C57.1716 8.76511 57.1886 8.84414 57.1867 9.48835C57.1845 10.0623 57.1527 10.2518 56.9943 10.6312C56.5655 11.6592 56.4598 11.7793 52.8722 15.3144C47.3672 20.739 45.3931 22.7137 45.3931 22.7971C45.3931 22.9374 45.884 22.955 50.3721 22.9758C54.1004 22.9933 54.8261 22.9803 54.9299 22.8945C54.9978 22.8385 55.0444 22.7527 55.0328 22.704C54.9962 22.5529 53.5404 21.2942 53.2726 21.1827C53.0779 21.1013 52.6617 21.0771 51.4568 21.0771C50.5967 21.0771 49.8935 21.0496 49.8935 21.016C49.8935 20.9824 51.553 19.3366 53.5818 17.3587C55.6098 15.3808 57.4171 13.5912 57.5975 13.3819C58.7135 12.0894 59.1432 11.0569 59.1445 9.66943C59.1457 7.7272 58.3693 6.39893 56.1891 4.61183C54.043 2.85273 50.3049 0 50.1452 0C50.0288 0 48.9851 0.788036 46.8835 2.46421ZM45.3931 8.18848C45.3931 8.30177 46.7772 9.70416 47.0047 9.82174C47.1552 9.8994 47.5732 9.92291 48.8015 9.92291C50.0317 9.92291 50.4027 9.94383 50.4046 10.0134C50.4058 10.0633 48.6948 11.7989 46.6021 13.8703C44.5093 15.9418 42.6601 17.8257 42.4932 18.0568C42.0736 18.6371 41.6612 19.4242 41.4609 20.0268C41.3192 20.4525 41.2927 20.6793 41.2962 21.4392C41.299 22.2345 41.3239 22.4151 41.5 22.9241C41.9171 24.1277 42.662 25.1534 43.7868 26.0739C44.1714 26.3887 45.7206 27.6257 47.2296 28.823C49.3312 30.4908 50.0197 31 50.173 31C50.3661 31 51.8913 29.8438 55.7007 26.8102C58.2557 24.7758 59.0069 23.6699 59.0946 21.8128C59.1861 19.8744 58.6636 18.6624 57.0359 17.0391C55.9143 15.9204 55.8821 15.9139 55.1681 16.6519C54.9022 16.9268 54.6848 17.2083 54.6848 17.2772C54.6848 17.3462 54.9738 17.6998 55.3271 18.0629C56.4702 19.2366 56.9116 19.879 57.1262 20.6787C57.4549 21.9034 56.7864 23.4796 55.5073 24.498C52.7214 26.7161 50.3137 28.5374 50.168 28.5374C49.9499 28.5374 50.0638 28.6195 47.0993 26.3255C45.6947 25.2385 44.3579 24.1451 44.1102 23.8799C42.9466 22.6364 42.7466 20.9791 43.5906 19.581C43.766 19.2898 45.2965 17.7599 49.1678 14.0048C52.1023 11.1586 54.646 8.66841 54.8211 8.47102L55.1385 8.11214H50.2658C46.8993 8.11214 45.3931 8.13578 45.3931 8.18848Z" fill="white"/>
</g>
<defs>
<clipPath id="clip0_5174_2">
<rect width="59" height="31" fill="white" transform="translate(0.393555)"/>
</clipPath>
</defs>
</svg>
